# xmcd
#
# Track frame offsets:
# 150
# 12373
# 26733
# 39343
# 51080
# 63077
# 73533
# 88560
# 101220
# 113731
# 127926
# 142161
# 155638
# 167132
# 181188
# 194523
# 208542
# 222247
# 235066
# 248154
# 258128
# 270213
# 284634
# 299891
# 312124
#
# Disc length: 4357 seconds
#
# Revision: 1
# Processed by: cddbd v1.4PL0 Copyright (c) Steve Scherf et al.
# Submitted via: inCDius 2.0b9
#
DISCID=71110319
DTITLE=Muddy Waters - The King of Chicago Blues - The Essential Early Muddy Wa
DTITLE=ters [CD1]
DYEAR=1900
DGENRE=
TTITLE0=I Can't Be Satisfied
TTITLE1=I Feel Like Going Home
TTITLE2=Train Fare Home
TTITLE3=Sittin' Here And Drinkin'
TTITLE4=You're Gonna Miss Me
TTITLE5=Mean Red Spider
TTITLE6=Streamline Woman
TTITLE7=Little Geneva
TTITLE8=Canary Bird
TTITLE9=Screamin' And Cryin'
TTITLE10=Where's My Woman Been
TTITLE11=Rollin' And Tumblin' (Part1)
TTITLE12=Rollin' And Tumblin' (Part2)
TTITLE13=Rollin' Stone
TTITLE14=Walkin' Blues
TTITLE15=You're Gonna Need My Help, I Said
TTITLE16=Sad Letter Blues
TTITLE17=Appealing Blues (Hello Little Girl)
TTITLE18=Louisiana Blues
TTITLE19=Evan's Shuffle
TTITLE20=Long Distance Call
TTITLE21=Too Young To Know
TTITLE22=Honey Bee
TTITLE23=My Fault
TTITLE24=Still A Fool
EXTD=2002. 1-6 1948 - 7-11 1949 - 12-17,19,20 1950 - 18,21-25 1951
EXTT0=
EXTT1=
EXTT2=
EXTT3=
EXTT4=
EXTT5=
EXTT6=
EXTT7=
EXTT8=
EXTT9=
EXTT10=
EXTT11=
EXTT12=
EXTT13=
EXTT14=
EXTT15=
EXTT16=
EXTT17=
EXTT18=
EXTT19=
EXTT20=
EXTT21=
EXTT22=
EXTT23=
EXTT24=
PLAYORDER=
